<svg width="19" height="14" viewBox="0 0 19 14" fill="none" xmlns="http://www.w3.org/2000/svg">
<path d="M10.6348 11H6.91406V2.36328H10.6348C11.1699 2.37109 11.6152 2.43359 11.9707 2.55078C12.5762 2.75 13.0664 3.11523 13.4414 3.64648C13.7422 4.07617 13.9473 4.54102 14.0566 5.04102C14.166 5.54102 14.2207 6.01758 14.2207 6.4707C14.2207 7.61914 13.9902 8.5918 13.5293 9.38867C12.9043 10.4629 11.9395 11 10.6348 11ZM11.9766 4.56641C11.6992 4.09766 11.1504 3.86328 10.3301 3.86328H8.66602V9.5H10.3301C11.1816 9.5 11.7754 9.08008 12.1113 8.24023C12.2949 7.7793 12.3867 7.23047 12.3867 6.59375C12.3867 5.71484 12.25 5.03906 11.9766 4.56641Z" fill="black"/>
<rect y="5" width="2" height="6" fill="black"/>
<rect x="3" y="9" width="2" height="3" transform="rotate(-90 3 9)" fill="black"/>
<circle cx="1" cy="1" r="1" transform="matrix(-1 0 0 1 2 2)" fill="black"/>
</svg>
