<?xml version="1.0" encoding="UTF-8"?>
<svg width="117px" height="30px" viewBox="0 0 117 30" version="1.1" xmlns="http://www.w3.org/2000/svg" xmlns:xlink="http://www.w3.org/1999/xlink">
    <!-- Generator: sketchtool 53.2 (72643) - https://sketchapp.com -->
    <title>A486BA42-E13F-42A9-BD7D-2DEAC36EA116</title>
    <desc>Created with sketchtool.</desc>
    <g id="Symbols" stroke="none" stroke-width="1" fill="none" fill-rule="evenodd">
        <g id="head_white_bg" transform="translate(-35.000000, -35.000000)" fill="#252525" fill-rule="nonzero">
            <g id="head">
                <g id="sessun-logo" transform="translate(35.000000, 35.000000)">
                    <path d="M26,8.24 C31.79,8.24 36,12.6 36,19.2 L36,19.66 L19,19.66 C19.33,23.99 21.92,26.66 25.92,26.66 C28.9360788,26.6794499 31.6930681,24.9582786 33,22.24 L36,22.24 C34.4082587,26.3959989 30.4497896,29.1669273 26,29.24 C23.3254597,29.3153058 20.7379315,28.2859387 18.8459964,26.3940036 C16.9540613,24.5020685 15.9246942,21.9145403 16,19.24 C16,13.24 20.62,8.24 26,8.24 Z M19,17.24 L33.63,17.24 C32.74,12.91 29.89,10.74 26,10.74 C22.11,10.74 19.52,13.16 19,17.24 Z M8.49,17.35 C12.09,18.31 13.83,19.93 13.83,23.16 C13.83,26.82 11.55,29.24 7.5,29.24 C5.79179036,29.2069061 4.16924113,28.4857731 3,27.24 L3,29.24 L-7.99360578e-15,29.24 L-7.99360578e-15,22.24 L3,22.24 C2.90433056,23.4114755 3.30629727,24.569098 4.10739564,25.4291846 C4.90849401,26.2892712 6.03468923,26.7723357 7.21,26.76 C9.69,26.76 10.96,25.49 10.96,23.26 C10.96,20.49 8.8,20.15 5.68,19.26 C2.18,18.3 -7.99360578e-15,16.65 -7.99360578e-15,13.65 C-7.99360578e-15,10.65 2.13,8.15 6.58,8.16 C8.13,8.16 10,9.24 10,10.24 L10,8.24 L13,8.24 L13,14.24 L10,14.24 C9.48,12.1 8.49,10.52 6.41,10.52 C4.33,10.52 3.16,11.56 3.06,13.35 C2.91,16.02 5.2,16.46 8.49,17.35 Z M46.49,17.35 C50.09,18.31 51.83,19.93 51.83,23.16 C51.83,26.82 49.55,29.24 45.5,29.24 C43.7917904,29.2069061 42.1692411,28.4857731 41,27.24 L41,29.24 L38,29.24 L38,22.24 L41,22.24 C40.9005883,23.420173 41.3064883,24.5871203 42.1168328,25.4508522 C42.9271773,26.3145842 44.0658909,26.7940132 45.25,26.77 C47.73,26.77 49,25.5 49,23.27 C49,20.5 46.84,20.16 43.72,19.27 C40.22,18.31 38.04,16.66 38.04,13.66 C38.04,10.66 40.12,8.16 44.58,8.16 C46.13,8.16 48,9.24 48,10.24 L48,8.24 L51,8.24 L51,14.24 L48,14.24 C47.48,12.1 46.49,10.52 44.41,10.52 C42.33,10.52 41.16,11.56 41.06,13.35 C40.91,16.02 43.2,16.46 46.49,17.35 Z M62.49,17.35 C66.09,18.31 67.83,19.93 67.83,23.16 C67.83,26.82 65.55,29.24 61.5,29.24 C59.7917904,29.2069061 58.1692411,28.4857731 57,27.24 L57,29.24 L54,29.24 L54,22.24 L57,22.24 C56.9005883,23.420173 57.3064883,24.5871203 58.1168328,25.4508522 C58.9271773,26.3145842 60.0658909,26.7940132 61.25,26.77 C63.73,26.77 65,25.5 65,23.27 C65,20.5 62.84,20.16 59.72,19.27 C56.22,18.31 54.04,16.66 54.04,13.66 C54.04,10.66 56.12,8.16 60.58,8.16 C62.13,8.16 64,9.24 64,10.24 L64,8.24 L67,8.24 L67,14.24 L64,14.24 C63.48,12.1 62.49,10.52 60.41,10.52 C58.33,10.52 57.16,11.56 57.06,13.35 C56.91,16.02 59.2,16.46 62.49,17.35 Z M84.28,4.97 L83.12,7.05 L74.19,2.08 L75.34,-1.33226763e-15 L84.28,4.97 Z M114,26.24 L113.84,26.3 L117,26.24 L117,29.24 L108,29.24 L108,26.24 L111,26.24 L111,18.24 C111,13.03 110.1,11.24 106,11.24 C101.9,11.24 100,12.75 100,18.24 L100,26.24 L103,26.24 L103,29.24 L94,29.24 L94,26.24 L97,26.24 L97,11.24 L94,11.24 L94,8.24 L100.04,8.24 L100.04,11.24 C101.41,8.95 103.27,8.24 106.04,8.24 C108.564974,8.06785734 111.002428,9.19980191 112.5,11.24 C113.644713,13.0212744 114.171794,15.1295988 114,17.24 L114,26.24 Z M89,8.24 L90,8.24 L90,26.24 L93,26.24 L93,29.24 L87,29.24 L87,26.24 C85.59,28.51 83.23,29.24 80.5,29.24 C77.8216564,29.3432809 75.2431301,28.2160965 73.5,26.18 C72.19,24.12 72.13,22.49 72,20.24 L72,11.24 L70,11.24 L70,8.24 L75,8.24 L75,18.24 C75.13,20.65 74.5,26.24 80.5,26.24 C84.6,26.24 87,23.73 87,18.24 L87,11.24 L84,11.24 L84,8.24 L89,8.24 Z" id="Combined-Shape"></path>
                </g>
            </g>
        </g>
    </g>
</svg>